<svg xmlns="http://www.w3.org/2000/svg" xmlns:xlink="http://www.w3.org/1999/xlink" id="Healthcare_Icons" x="0px" y="0px" viewBox="0 0 64 64" style="enable-background:new 0 0 64 64;" xml:space="preserve"><style type="text/css">	.st0{fill:#8CE9E2;}	.st1{fill:#113E68;}</style><g>	<circle class="st0" cx="20.1" cy="29.5" r="13.5"></circle>	<path class="st1" d="M54.2,56.1H9.8c-0.6,0-1-0.4-1-1V29.7c0-0.4,0.2-0.7,0.5-0.9l7.4-4.3c0.5-0.3,1.1-0.1,1.4,0.4  c0.3,0.5,0.1,1.1-0.4,1.4l-6.9,4v23.8h42.5V30.3l-6.9-4c-0.5-0.3-0.6-0.9-0.3-1.4c0.3-0.5,0.9-0.6,1.4-0.4l7.4,4.3  c0.3,0.2,0.5,0.5,0.5,0.9v25.3C55.3,55.6,54.8,56.1,54.2,56.1C54.3,56.1,54.2,56.1,54.2,56.1z"></path>	<path class="st1" d="M46.8,34.7c-0.6,0-1-0.4-1-1V13.3h-7c-0.6,0-1-0.4-1-1s0.4-1,1-1h8c0.6,0,1,0.4,1,1v21.4  C47.8,34.3,47.4,34.7,46.8,34.7z"></path>	<path class="st1" d="M17.2,34.9c-0.6,0-1-0.4-1-1V12.3c0-0.6,0.4-1,1-1h8c0.6,0,1,0.4,1,1s-0.4,1-1,1h-7v20.6  C18.2,34.4,17.7,34.9,17.2,34.9z"></path>	<path class="st1" d="M54.2,56.1c-0.2,0-0.3,0-0.5-0.1L9.3,30.6c-0.5-0.3-0.6-0.9-0.4-1.4c0,0,0,0,0,0c0.3-0.5,0.9-0.6,1.4-0.4  l44.5,25.3c0.5,0.3,0.6,0.9,0.4,1.4C54.9,55.9,54.6,56.1,54.2,56.1z"></path>	<path class="st1" d="M31.4,43c-0.4,0-0.7-0.2-0.9-0.5c-0.3-0.5-0.1-1.1,0.4-1.3l22.8-12.3c0.5-0.3,1.1-0.1,1.3,0.4  c0.3,0.5,0.1,1.1-0.4,1.4c0,0,0,0,0,0L31.9,42.9C31.7,43,31.6,43,31.4,43z"></path>	<path class="st1" d="M33.5,21.9h-3.2c-0.6,0-1-0.4-1-1v-1.5h-1.5c-0.6,0-1-0.4-1-1v-3.2c0-0.6,0.4-1,1-1h1.5v-1.5c0-0.6,0.4-1,1-1  h3.2c0.6,0,1,0.4,1,1v1.5H36c0.6,0,1,0.4,1,1v3.2c0,0.6-0.4,1-1,1h-1.5v1.5C34.5,21.5,34,21.9,33.5,21.9z M31.3,19.9h1.2v-1.5  c0-0.6,0.4-1,1-1H35v-1.2h-1.5c-0.6,0-1-0.4-1-1v-1.5h-1.2v1.5c0,0.6-0.4,1-1,1h-1.5v1.2h1.5c0.6,0,1,0.4,1,1L31.3,19.9z"></path>	<path class="st1" d="M31.9,25.6c-4.9,0-8.9-4-8.9-8.8c0-4.9,4-8.9,8.8-8.9s8.9,4,8.9,8.8c0,0,0,0,0,0  C40.7,21.7,36.8,25.6,31.9,25.6z M31.9,9.9c-3.8,0-6.9,3.1-6.9,6.8s3.1,6.9,6.8,6.9s6.9-3.1,6.9-6.8c0,0,0,0,0,0  C38.7,13,35.7,9.9,31.9,9.9z"></path>	<path class="st1" d="M38.4,30.2h-13c-0.6,0-1-0.4-1-1s0.4-1,1-1h13c0.6,0,1,0.4,1,1S39,30.2,38.4,30.2z"></path>	<path class="st1" d="M37.4,34.3h-11c-0.6,0-1-0.4-1-1s0.4-1,1-1h11c0.6,0,1,0.4,1,1S38,34.3,37.4,34.3z"></path></g></svg>