<svg xmlns="http://www.w3.org/2000/svg" xmlns:xlink="http://www.w3.org/1999/xlink" id="Healthcare_Icons" x="0px" y="0px" viewBox="0 0 64 64" style="enable-background:new 0 0 64 64;" xml:space="preserve"><style type="text/css">	.st0{fill:#8CE9E2;}	.st1{fill:#113E68;}</style><g>	<circle class="st0" cx="30" cy="23.9" r="13.5"></circle>	<path class="st1" d="M56,58H8c-2.2,0-4-1.8-4-4V10.1c0-2.2,1.8-4,4-4h17.8C25.9,6,26,6,26.2,6H56c2.2,0,4,1.8,4,4v44  C60,56.2,58.2,58,56,58z M8,8.1c-1.1,0-2,0.9-2,2V54c0,1.1,0.9,2,2,2h48c1.1,0,2-0.9,2-2V10c0-1.1-0.9-2-2-2H30.3  c-0.1,0.1-0.3,0.1-0.4,0.1H8z"></path>	<path class="st1" d="M9.4,12.4c-0.1,0-0.3,0-0.4-0.1c-0.1-0.1-0.2-0.1-0.3-0.2c-0.1-0.1-0.2-0.2-0.2-0.3c-0.1-0.1-0.1-0.3-0.1-0.4  c0-0.3,0.1-0.5,0.3-0.7c0.4-0.4,1-0.4,1.4,0c0,0,0,0,0,0c0.1,0.1,0.2,0.2,0.2,0.3c0,0.1,0.1,0.2,0.1,0.4c0,0.1,0,0.3-0.1,0.4  c-0.1,0.1-0.1,0.2-0.2,0.3C9.9,12.3,9.6,12.4,9.4,12.4z"></path>	<path class="st1" d="M12.8,12.4c-0.4,0-0.8-0.2-0.9-0.6c-0.1-0.1-0.1-0.3-0.1-0.4c0-0.3,0.1-0.5,0.3-0.7c0.4-0.4,1-0.4,1.4,0  c0,0,0,0,0,0c0.2,0.2,0.3,0.4,0.3,0.7c0,0.1,0,0.3-0.1,0.4c-0.1,0.1-0.1,0.2-0.2,0.3C13.3,12.3,13,12.4,12.8,12.4z"></path>	<path class="st1" d="M16.1,12.4c-0.1,0-0.3,0-0.4-0.1c-0.2-0.1-0.4-0.3-0.5-0.5c0-0.1-0.1-0.3-0.1-0.4c0-0.1,0-0.3,0.1-0.4  c0.2-0.5,0.8-0.7,1.3-0.5c0.1,0.1,0.2,0.1,0.3,0.2c0.1,0.1,0.2,0.2,0.2,0.3c0.1,0.1,0.1,0.2,0.1,0.4c0,0.1,0,0.3-0.1,0.4  c0,0.1-0.1,0.2-0.2,0.3c-0.1,0.1-0.2,0.2-0.3,0.2C16.4,12.3,16.3,12.4,16.1,12.4z"></path>	<path class="st1" d="M27.8,16.8H5.7c-0.6,0-1-0.4-1-1c0-0.6,0.4-1,1-1h22.1c0.6,0,1,0.4,1,1C28.8,16.3,28.4,16.8,27.8,16.8z"></path>	<path class="st1" d="M58.7,16.8H18.1c-0.6,0-1-0.4-1-1c0-0.6,0.4-1,1-1h40.6c0.6,0,1,0.4,1,1C59.7,16.3,59.3,16.8,58.7,16.8z"></path>	<path class="st1" d="M22.8,42.8h-4.1c-0.6,0-1-0.4-1-1v-2.2h-2.2c-0.6,0-1-0.4-1-1v-4.1c0-0.6,0.4-1,1-1h2.2v-2.2c0-0.6,0.4-1,1-1  h4.1c0.6,0,1,0.4,1,1v2.2H26c0.6,0,1,0.4,1,1v4.1c0,0.6-0.4,1-1,1h-2.2v2.2C23.8,42.4,23.3,42.8,22.8,42.8  C22.8,42.8,22.8,42.8,22.8,42.8z M19.7,40.8h2.1v-2.2c0-0.6,0.4-1,1-1H25v-2.1h-2.2c-0.6,0-1-0.4-1-1v-2.2h-2.1v2.2  c0,0.6-0.4,1-1,1h-2.2v2.1h2.2c0.6,0,1,0.4,1,1V40.8z"></path>	<path class="st1" d="M20.7,48c-6.3,0-11.5-5.1-11.5-11.5S14.4,25,20.7,25s11.5,5.1,11.5,11.5c0,0,0,0,0,0C32.2,42.9,27,48,20.7,48z   M20.7,27c-5.2,0-9.5,4.2-9.5,9.5s4.2,9.5,9.5,9.5s9.5-4.2,9.5-9.5l0,0C30.2,31.3,25.9,27.1,20.7,27L20.7,27z"></path>	<path class="st1" d="M42.7,30.1h-6.5c-0.6,0-1-0.4-1-1v-5.1c0-0.6,0.4-1,1-1h6.5c0.6,0,1,0.4,1,1v5.1  C43.7,29.7,43.2,30.1,42.7,30.1L42.7,30.1z M37.1,28.1h4.5v-3.1h-4.5L37.1,28.1z"></path>	<path class="st1" d="M51.6,29.5h-4.4c-0.6,0-1-0.4-1-1s0.4-1,1-1h4.4c0.6,0,1,0.4,1,1S52.2,29.5,51.6,29.5z"></path>	<path class="st1" d="M53.6,25.2h-6.4c-0.6,0-1-0.4-1-1s0.4-1,1-1h6.4c0.6,0,1,0.4,1,1S54.2,25.2,53.6,25.2z"></path>	<path class="st1" d="M42.7,40.1h-6.5c-0.6,0-1-0.4-1-1V34c0-0.6,0.4-1,1-1h6.5c0.6,0,1,0.4,1,1v5.1C43.7,39.7,43.2,40.1,42.7,40.1  L42.7,40.1z M37.1,38.1h4.5V35h-4.5L37.1,38.1z"></path>	<path class="st1" d="M51.6,39.4h-4.4c-0.6,0-1-0.4-1-1s0.4-1,1-1h4.4c0.6,0,1,0.4,1,1S52.2,39.4,51.6,39.4z"></path>	<path class="st1" d="M53.9,35.2h-6.7c-0.6,0-1-0.4-1-1s0.4-1,1-1h6.7c0.6,0,1,0.4,1,1S54.5,35.2,53.9,35.2z"></path>	<path class="st1" d="M42.7,50.1h-6.5c-0.6,0-1-0.4-1-1V44c0-0.6,0.4-1,1-1h6.5c0.6,0,1,0.4,1,1v5.1C43.7,49.6,43.2,50.1,42.7,50.1  L42.7,50.1z M37.1,48.1h4.5V45h-4.5L37.1,48.1z"></path>	<path class="st1" d="M51.6,49.4h-4.4c-0.6,0-1-0.4-1-1s0.4-1,1-1h4.4c0.6,0,1,0.4,1,1S52.2,49.4,51.6,49.4z"></path>	<path class="st1" d="M53.9,45.1h-6.7c-0.6,0-1-0.4-1-1s0.4-1,1-1h6.7c0.6,0,1,0.4,1,1S54.5,45.1,53.9,45.1z"></path></g></svg>