<svg xmlns="http://www.w3.org/2000/svg" xmlns:xlink="http://www.w3.org/1999/xlink" id="Healthcare_Icons" x="0px" y="0px" viewBox="0 0 64 64" style="enable-background:new 0 0 64 64;" xml:space="preserve"><style type="text/css">	.st0{fill:#8CE9E2;}	.st1{fill:#113E68;}</style><g>	<circle class="st0" cx="45.5" cy="18.5" r="13.5"></circle>	<path class="st1" d="M47.8,52.4H16.2c-2.6,0-4.7-2.1-4.7-4.7V16c0-2.6,2.1-4.7,4.7-4.7h31.6c2.6,0,4.7,2.1,4.7,4.7v31.7  C52.5,50.3,50.4,52.4,47.8,52.4z M16.2,13.2c-1.5,0-2.7,1.2-2.7,2.7c0,0,0,0,0,0v31.7c0,1.5,1.2,2.7,2.7,2.7c0,0,0,0,0,0h31.6  c1.5,0,2.7-1.2,2.7-2.7c0,0,0,0,0,0V16c0-1.5-1.2-2.7-2.7-2.7l0,0L16.2,13.2z"></path>	<path class="st1" d="M46.3,55.5H17.7c-2.4,0-4.4-2-4.4-4.4l0,0c0-0.6,0.4-1,1-1s1,0.4,1,1c0,1.3,1.1,2.4,2.4,2.4c0,0,0,0,0,0h28.6  c1.3,0,2.4-1.1,2.4-2.4l0,0c0-0.6,0.4-1,1-1s1,0.4,1,1C50.7,53.6,48.7,55.5,46.3,55.5L46.3,55.5z"></path>	<path class="st1" d="M21.8,16.9c-0.6,0-1-0.4-1-1V9.5c0-0.6,0.4-1,1-1s1,0.4,1,1v6.4C22.8,16.5,22.3,16.9,21.8,16.9z"></path>	<path class="st1" d="M42.2,16.9c-0.6,0-1-0.4-1-1V9.5c0-0.6,0.4-1,1-1s1,0.4,1,1v6.4C43.2,16.5,42.8,16.9,42.2,16.9z"></path>	<path class="st1" d="M51.5,21.5H12.5c-0.6,0-1-0.4-1-1s0.4-1,1-1h39.1c0.6,0,1,0.4,1,1S52.1,21.5,51.5,21.5z"></path>	<path class="st1" d="M46.2,47.3H17.8c-0.6,0-1-0.4-1-1V24.8c0-0.6,0.4-1,1-1h28.3c0.6,0,1,0.4,1,1v21.5  C47.2,46.9,46.7,47.3,46.2,47.3z M18.8,45.3h26.3V25.8H18.8V45.3z"></path>	<path class="st1" d="M39,47.3c-0.6,0-1-0.4-1-1V24.8c0-0.6,0.4-1,1-1s1,0.4,1,1v21.5C40,46.9,39.6,47.3,39,47.3z"></path>	<path class="st1" d="M32,47.3c-0.6,0-1-0.4-1-1V24.8c0-0.6,0.4-1,1-1s1,0.4,1,1v21.5C33,46.9,32.6,47.3,32,47.3z"></path>	<path class="st1" d="M25,47.3c-0.6,0-1-0.4-1-1V24.8c0-0.6,0.4-1,1-1s1,0.4,1,1v21.5C26,46.9,25.6,47.3,25,47.3z"></path>	<path class="st1" d="M45.8,33.1H18.2c-0.6,0-1-0.4-1-1s0.4-1,1-1h27.7c0.6,0,1,0.4,1,1S46.4,33.1,45.8,33.1z"></path>	<path class="st1" d="M45.8,40.1H18.2c-0.6,0-1-0.4-1-1s0.4-1,1-1h27.7c0.6,0,1,0.4,1,1S46.4,40.1,45.8,40.1z"></path></g></svg>