<svg xmlns="http://www.w3.org/2000/svg" xmlns:xlink="http://www.w3.org/1999/xlink" id="Healthcare_Icons" x="0px" y="0px" viewBox="0 0 64 64" style="enable-background:new 0 0 64 64;" xml:space="preserve"><style type="text/css">	.st0{fill:#8CE9E2;}	.st1{fill:#113E68;}</style><g>	<circle class="st0" cx="44.6" cy="38.5" r="13.5"></circle>	<path class="st1" d="M42.8,26.5h-4.3c-0.6,0-1-0.4-1-1v-2.3h-2.3c-0.6,0-1-0.4-1-1v-4.3c0-0.6,0.4-1,1-1h2.3v-2.3c0-0.6,0.4-1,1-1  h4.3c0.6,0,1,0.4,1,1v2.3h2.3c0.6,0,1,0.4,1,1v4.3c0,0.6-0.4,1-1,1h-2.3v2.3C43.8,26.1,43.3,26.5,42.8,26.5z M39.5,24.5h2.3v-2.3  c0-0.6,0.4-1,1-1h2.3v-2.3h-2.3c-0.6,0-1-0.4-1-1v-2.3h-2.3v2.3c0,0.6-0.4,1-1,1h-2.3v2.3h2.3c0.6,0,1,0.4,1,1V24.5z"></path>	<path class="st1" d="M43.4,58.3c-0.2,0-0.4,0-0.5,0C24,55.6,9.1,40.7,6.4,21.8c-0.3-1.9,0.9-3.7,2.8-4.2l7.2-1.9  c1.8-0.5,3.7,0.4,4.5,2.2l1.6,3.7c1.8,4.1,0.9,9-2.4,12.1c2.8,4.4,6.5,8.2,10.9,10.9c3.1-3.3,8-4.3,12.1-2.4l3.7,1.6  c1.7,0.7,2.7,2.6,2.2,4.4l-1.9,7.2C46.7,57.1,45.1,58.3,43.4,58.3z M17.4,17.6c-0.2,0-0.3,0-0.5,0.1l-7.2,1.9  c-0.9,0.2-1.5,1.1-1.4,2c2.6,18,16.7,32.1,34.7,34.8c0.9,0.1,1.8-0.5,2-1.4l1.9-7.2c0.2-0.9-0.2-1.8-1-2.1L42.3,44  c-3.6-1.6-7.9-0.6-10.3,2.5c-0.3,0.4-0.9,0.5-1.3,0.2C25.5,43.6,21.1,39.3,18,34c-0.3-0.4-0.2-1,0.2-1.3c3.1-2.5,4.1-6.7,2.5-10.3  l-1.6-3.7C18.8,18,18.1,17.6,17.4,17.6L17.4,17.6z"></path>	<path class="st1" d="M37.6,36.4c-0.1,0-0.3,0-0.4-0.1c-0.4-0.2-0.6-0.5-0.6-0.9v-3.1H30c-1.3,0-2.4-1.1-2.4-2.4c0,0,0,0,0,0V10.1  c0-1.3,1.1-2.4,2.4-2.4c0,0,0,0,0,0h21.1c1.3,0,2.4,1.1,2.4,2.4l0,0v19.7c0,1.3-1.1,2.4-2.4,2.4l0,0H43l-4.8,3.9  C38.1,36.3,37.9,36.4,37.6,36.4z M30,9.7c-0.2,0-0.4,0.2-0.4,0.4v19.7c0,0.2,0.2,0.4,0.4,0.4h7.6c0.6,0,1,0.4,1,1v2l3.4-2.8  c0.2-0.1,0.4-0.2,0.6-0.2h8.5c0.2,0,0.4-0.2,0.4-0.4l0,0V10.1c0-0.2-0.2-0.4-0.4-0.4l0,0H30z"></path></g></svg>