<svg xmlns="http://www.w3.org/2000/svg" xmlns:xlink="http://www.w3.org/1999/xlink" id="Healthcare_Icons" x="0px" y="0px" viewBox="0 0 64 64" style="enable-background:new 0 0 64 64;" xml:space="preserve"><style type="text/css">	.st0{fill:#8CE9E2;}	.st1{fill:#113E68;}</style><g>	<circle class="st0" cx="17.4" cy="23" r="13.5"></circle>	<path class="st1" d="M46.1,16H17.9c-0.6,0-1-0.4-1-1s0.4-1,1-1h28.2c0.6,0,1,0.4,1,1S46.7,16,46.1,16z"></path>	<path class="st1" d="M46.1,49.2H17.9c-0.6,0-1-0.4-1-1s0.4-1,1-1h28.2c0.6,0,1,0.4,1,1S46.7,49.2,46.1,49.2z"></path>	<path class="st1" d="M41.9,57.7H22.1c-2.9,0-5.2-2.3-5.2-5.2V12.4c0-2.9,2.3-5.2,5.2-5.2h19.8c2.9,0,5.2,2.3,5.2,5.2v5.2  c0,0.6-0.4,1-1,1s-1-0.4-1-1v-5.2c0-1.8-1.4-3.2-3.2-3.2H22.1c-1.8,0-3.2,1.4-3.2,3.2l0,0v40.1c0,1.8,1.4,3.2,3.2,3.2h19.8  c1.8,0,3.2-1.4,3.2-3.2V41.4c0-0.6,0.4-1,1-1s1,0.4,1,1v11.2C47.1,55.4,44.8,57.7,41.9,57.7z"></path>	<path class="st1" d="M33.1,53.3h-2.2c-0.6,0-1-0.4-1-1s0.4-1,1-1h2.2c0.6,0,1,0.4,1,1S33.7,53.3,33.1,53.3z"></path>	<path class="st1" d="M35.5,46c-0.1,0-0.3,0-0.4-0.1c-0.3-0.2-0.6-0.5-0.6-0.9v-3.1h-6.6c-1.3,0-2.4-1.1-2.4-2.4l0,0V19.8  c0-1.3,1.1-2.4,2.4-2.4l0,0H49c1.3,0,2.4,1.1,2.4,2.4v19.7c0,1.3-1.1,2.4-2.4,2.4h-8.1l-4.8,3.9C35.9,45.9,35.7,46,35.5,46z   M27.9,19.3c-0.2,0-0.4,0.2-0.4,0.4l0,0v19.7c0,0.2,0.2,0.4,0.4,0.4l0,0h7.6c0.6,0,1,0.4,1,1v2l3.4-2.8c0.2-0.1,0.4-0.2,0.6-0.2H49  c0.2,0,0.4-0.2,0.4-0.4V19.8c0-0.2-0.2-0.4-0.4-0.4L27.9,19.3z"></path>	<path class="st1" d="M40.6,36.2h-4.3c-0.6,0-1-0.4-1-1v-2.3H33c-0.6,0-1-0.4-1-1v-4.3c0-0.6,0.4-1,1-1h2.3v-2.3c0-0.6,0.4-1,1-1  h4.3c0.6,0,1,0.4,1,1v2.3h2.3c0.6,0,1,0.4,1,1v4.3c0,0.6-0.4,1-1,1h-2.3v2.3C41.6,35.7,41.2,36.2,40.6,36.2z M37.3,34.2h2.3v-2.3  c0-0.6,0.4-1,1-1h2.3v-2.3h-2.3c-0.6,0-1-0.4-1-1v-2.3h-2.3v2.3c0,0.6-0.4,1-1,1H34v2.3h2.3c0.6,0,1,0.4,1,1L37.3,34.2z"></path></g></svg>